<svg xmlns="http://www.w3.org/2000/svg" xmlns:xlink="http://www.w3.org/1999/xlink" width="500" zoomAndPan="magnify" viewBox="0 0 375 374.999991" height="500" preserveAspectRatio="xMidYMid meet" version="1.0"><defs><clipPath id="id1"><path d="M 7.464844 7.464844 L 374.964844 7.464844 L 374.964844 374.964844 L 7.464844 374.964844 Z M 7.464844 7.464844 " clip-rule="nonzero"/></clipPath></defs><g clip-path="url(#id1)"><path fill="#ff9800" d="M 374.964844 191.214844 C 374.964844 292.730469 292.730469 374.964844 191.214844 374.964844 C 89.695312 374.964844 7.464844 292.730469 7.464844 191.214844 C 7.464844 89.695312 89.695312 7.464844 191.214844 7.464844 C 292.730469 7.464844 374.964844 89.695312 374.964844 191.214844 Z M 374.964844 191.214844 " fill-opacity="1" fill-rule="evenodd"/></g><path fill="#ffffff" d="M 191.214844 205.347656 C 152.195312 205.347656 120.539062 173.691406 120.539062 134.675781 C 120.539062 95.65625 152.195312 64 191.214844 64 C 230.230469 64 261.886719 95.65625 261.886719 134.675781 C 261.886719 173.691406 230.230469 205.347656 191.214844 205.347656 Z M 58.257812 271.824219 C 58.40625 270.574219 58.921875 269.394531 59.730469 268.363281 C 77.179688 246.574219 104.710938 233.617188 141.742188 233.617188 L 240.683594 233.617188 C 277.714844 233.617188 305.246094 246.574219 322.695312 268.363281 C 323.503906 269.394531 324.019531 270.574219 324.167969 271.824219 C 296.929688 316.730469 247.605469 346.695312 191.214844 346.695312 C 134.820312 346.695312 85.496094 316.730469 58.257812 271.824219 Z M 58.257812 271.824219 " fill-opacity="1" fill-rule="evenodd"/></svg>