<svg xmlns="http://www.w3.org/2000/svg" xmlns:xlink="http://www.w3.org/1999/xlink" width="500" zoomAndPan="magnify" viewBox="0 0 375 374.999991" height="500" preserveAspectRatio="xMidYMid meet" version="1.0"><defs><clipPath id="id1"><path d="M 11.113281 8.660156 L 364.363281 8.660156 L 364.363281 361.910156 L 11.113281 361.910156 Z M 11.113281 8.660156 " clip-rule="nonzero"/></clipPath></defs><g clip-path="url(#id1)"><path fill="#1a4789" d="M 364.363281 308.191406 C 364.363281 337.839844 340.335938 361.867188 310.691406 361.867188 L 64.804688 361.867188 C 35.160156 361.867188 11.128906 337.839844 11.128906 308.191406 L 11.128906 62.308594 C 11.128906 32.664062 35.160156 8.632812 64.804688 8.632812 L 310.6875 8.632812 C 340.332031 8.632812 364.363281 32.664062 364.363281 62.308594 Z M 364.363281 308.191406 " fill-opacity="1" fill-rule="nonzero"/></g><path fill="#ffffff" d="M 245.183594 212.695312 L 250.894531 168.40625 L 207.035156 168.40625 L 207.035156 140.128906 C 207.035156 127.304688 210.613281 118.566406 228.996094 118.566406 L 252.433594 118.550781 L 252.433594 78.941406 C 248.386719 78.402344 234.476562 77.195312 218.265625 77.195312 C 184.445312 77.195312 161.308594 97.839844 161.308594 135.746094 L 161.308594 168.40625 L 123.0625 168.40625 L 123.0625 212.699219 L 161.308594 212.699219 L 161.308594 326.339844 L 207.035156 326.339844 L 207.035156 212.695312 Z M 245.183594 212.695312 " fill-opacity="1" fill-rule="nonzero"/></svg>