<svg xmlns="http://www.w3.org/2000/svg" xmlns:xlink="http://www.w3.org/1999/xlink" width="500" zoomAndPan="magnify" viewBox="0 0 375 374.999991" height="500" preserveAspectRatio="xMidYMid meet" version="1.0"><defs><clipPath id="id1"><path d="M 8.015625 8.015625 L 367.265625 8.015625 L 367.265625 367.265625 L 8.015625 367.265625 Z M 8.015625 8.015625 " clip-rule="nonzero"/></clipPath></defs><g clip-path="url(#id1)"><path fill="#ffffff" d="M 61.902344 8.015625 L 313.378906 8.015625 C 315.144531 8.015625 316.902344 8.101562 318.660156 8.277344 C 320.417969 8.449219 322.160156 8.707031 323.890625 9.050781 C 325.621094 9.394531 327.332031 9.824219 329.019531 10.335938 C 330.710938 10.847656 332.371094 11.441406 334 12.117188 C 335.628906 12.792969 337.222656 13.546875 338.78125 14.378906 C 340.335938 15.210938 341.847656 16.117188 343.316406 17.097656 C 344.785156 18.078125 346.199219 19.128906 347.5625 20.246094 C 348.929688 21.367188 350.234375 22.550781 351.484375 23.800781 C 352.730469 25.046875 353.914062 26.351562 355.035156 27.71875 C 356.152344 29.082031 357.203125 30.496094 358.183594 31.964844 C 359.164062 33.433594 360.070312 34.945312 360.902344 36.5 C 361.734375 38.058594 362.488281 39.652344 363.164062 41.28125 C 363.839844 42.914062 364.433594 44.570312 364.945312 46.261719 C 365.457031 47.949219 365.886719 49.660156 366.230469 51.390625 C 366.574219 53.121094 366.832031 54.863281 367.007812 56.621094 C 367.179688 58.378906 367.265625 60.136719 367.265625 61.902344 L 367.265625 313.378906 C 367.265625 315.144531 367.179688 316.902344 367.007812 318.660156 C 366.832031 320.417969 366.574219 322.160156 366.230469 323.890625 C 365.886719 325.621094 365.457031 327.332031 364.945312 329.019531 C 364.433594 330.710938 363.839844 332.371094 363.164062 334 C 362.488281 335.628906 361.734375 337.222656 360.902344 338.78125 C 360.070312 340.335938 359.164062 341.847656 358.183594 343.316406 C 357.203125 344.785156 356.152344 346.199219 355.035156 347.5625 C 353.914062 348.929688 352.730469 350.234375 351.484375 351.484375 C 350.234375 352.730469 348.929688 353.914062 347.5625 355.035156 C 346.199219 356.152344 344.785156 357.203125 343.316406 358.183594 C 341.847656 359.164062 340.335938 360.070312 338.78125 360.902344 C 337.222656 361.734375 335.628906 362.488281 334 363.164062 C 332.371094 363.839844 330.710938 364.433594 329.019531 364.945312 C 327.332031 365.457031 325.621094 365.886719 323.890625 366.230469 C 322.160156 366.574219 320.417969 366.832031 318.660156 367.007812 C 316.902344 367.179688 315.144531 367.265625 313.378906 367.265625 L 61.902344 367.265625 C 60.136719 367.265625 58.378906 367.179688 56.621094 367.007812 C 54.863281 366.832031 53.121094 366.574219 51.390625 366.230469 C 49.660156 365.886719 47.949219 365.457031 46.261719 364.945312 C 44.570312 364.433594 42.914062 363.839844 41.28125 363.164062 C 39.652344 362.488281 38.058594 361.734375 36.5 360.902344 C 34.945312 360.070312 33.433594 359.164062 31.964844 358.183594 C 30.496094 357.203125 29.082031 356.152344 27.71875 355.035156 C 26.351562 353.914062 25.046875 352.730469 23.800781 351.484375 C 22.550781 350.234375 21.367188 348.929688 20.246094 347.5625 C 19.128906 346.199219 18.078125 344.785156 17.097656 343.316406 C 16.117188 341.847656 15.210938 340.335938 14.378906 338.78125 C 13.546875 337.222656 12.792969 335.628906 12.117188 334 C 11.441406 332.371094 10.847656 330.710938 10.335938 329.019531 C 9.824219 327.332031 9.394531 325.621094 9.050781 323.890625 C 8.707031 322.160156 8.449219 320.417969 8.277344 318.660156 C 8.101562 316.902344 8.015625 315.144531 8.015625 313.378906 L 8.015625 61.902344 C 8.015625 60.136719 8.101562 58.378906 8.277344 56.621094 C 8.449219 54.863281 8.707031 53.121094 9.050781 51.390625 C 9.394531 49.660156 9.824219 47.949219 10.335938 46.261719 C 10.847656 44.570312 11.441406 42.914062 12.117188 41.28125 C 12.792969 39.652344 13.546875 38.058594 14.378906 36.5 C 15.210938 34.945312 16.117188 33.433594 17.097656 31.964844 C 18.078125 30.496094 19.128906 29.082031 20.246094 27.71875 C 21.367188 26.351562 22.550781 25.046875 23.800781 23.800781 C 25.046875 22.550781 26.351562 21.367188 27.71875 20.246094 C 29.082031 19.128906 30.496094 18.078125 31.964844 17.097656 C 33.433594 16.117188 34.945312 15.210938 36.5 14.378906 C 38.058594 13.546875 39.652344 12.792969 41.28125 12.117188 C 42.914062 11.441406 44.570312 10.847656 46.261719 10.335938 C 47.949219 9.824219 49.660156 9.394531 51.390625 9.050781 C 53.121094 8.707031 54.863281 8.449219 56.621094 8.277344 C 58.378906 8.101562 60.136719 8.015625 61.902344 8.015625 Z M 61.902344 8.015625 " fill-opacity="1" fill-rule="nonzero"/></g><path fill="#d54c3f" d="M 78.953125 94.011719 L 296.046875 94.011719 C 296.628906 94.011719 297.207031 94.039062 297.785156 94.097656 C 298.367188 94.152344 298.941406 94.238281 299.511719 94.351562 C 300.082031 94.464844 300.644531 94.609375 301.203125 94.777344 C 301.757812 94.945312 302.304688 95.140625 302.84375 95.363281 C 303.382812 95.585938 303.90625 95.835938 304.421875 96.109375 C 304.933594 96.382812 305.433594 96.683594 305.914062 97.003906 C 306.398438 97.328125 306.867188 97.675781 307.316406 98.042969 C 307.765625 98.414062 308.195312 98.804688 308.609375 99.214844 C 309.019531 99.625 309.410156 100.058594 309.777344 100.507812 C 310.148438 100.957031 310.492188 101.421875 310.816406 101.90625 C 311.140625 102.390625 311.4375 102.890625 311.714844 103.402344 C 311.988281 103.914062 312.238281 104.441406 312.460938 104.980469 C 312.683594 105.515625 312.878906 106.0625 313.046875 106.621094 C 313.214844 107.175781 313.355469 107.742188 313.46875 108.3125 C 313.582031 108.882812 313.667969 109.457031 313.726562 110.035156 C 313.78125 110.613281 313.8125 111.195312 313.8125 111.777344 L 313.8125 263.625 C 313.8125 264.207031 313.78125 264.785156 313.726562 265.363281 C 313.667969 265.945312 313.582031 266.519531 313.46875 267.089844 C 313.355469 267.660156 313.214844 268.222656 313.046875 268.78125 C 312.878906 269.335938 312.683594 269.886719 312.460938 270.421875 C 312.234375 270.960938 311.988281 271.484375 311.714844 272 C 311.4375 272.511719 311.140625 273.011719 310.816406 273.492188 C 310.492188 273.976562 310.148438 274.445312 309.777344 274.894531 C 309.410156 275.34375 309.019531 275.773438 308.609375 276.1875 C 308.195312 276.597656 307.765625 276.988281 307.316406 277.355469 C 306.867188 277.726562 306.398438 278.074219 305.914062 278.394531 C 305.433594 278.71875 304.933594 279.019531 304.421875 279.292969 C 303.90625 279.566406 303.382812 279.816406 302.84375 280.039062 C 302.304688 280.261719 301.757812 280.457031 301.203125 280.625 C 300.644531 280.792969 300.082031 280.933594 299.511719 281.046875 C 298.941406 281.160156 298.367188 281.246094 297.785156 281.304688 C 297.207031 281.359375 296.628906 281.390625 296.046875 281.390625 L 78.953125 281.390625 C 78.371094 281.390625 77.789062 281.359375 77.210938 281.304688 C 76.632812 281.246094 76.054688 281.160156 75.484375 281.046875 C 74.914062 280.933594 74.351562 280.792969 73.792969 280.625 C 73.238281 280.457031 72.691406 280.261719 72.152344 280.039062 C 71.617188 279.816406 71.089844 279.566406 70.578125 279.292969 C 70.0625 279.019531 69.566406 278.71875 69.082031 278.394531 C 68.597656 278.074219 68.128906 277.726562 67.679688 277.355469 C 67.230469 276.988281 66.800781 276.597656 66.390625 276.1875 C 65.976562 275.773438 65.585938 275.34375 65.21875 274.894531 C 64.847656 274.445312 64.503906 273.976562 64.179688 273.492188 C 63.855469 273.011719 63.558594 272.511719 63.285156 272 C 63.007812 271.484375 62.761719 270.960938 62.539062 270.421875 C 62.316406 269.886719 62.121094 269.335938 61.949219 268.78125 C 61.78125 268.222656 61.640625 267.660156 61.527344 267.089844 C 61.414062 266.519531 61.328125 265.945312 61.269531 265.363281 C 61.214844 264.785156 61.1875 264.207031 61.1875 263.625 L 61.1875 111.777344 C 61.1875 111.195312 61.214844 110.613281 61.269531 110.035156 C 61.328125 109.457031 61.414062 108.882812 61.527344 108.3125 C 61.640625 107.742188 61.78125 107.175781 61.949219 106.621094 C 62.121094 106.0625 62.316406 105.515625 62.539062 104.980469 C 62.761719 104.441406 63.007812 103.914062 63.285156 103.402344 C 63.558594 102.890625 63.855469 102.390625 64.179688 101.90625 C 64.503906 101.421875 64.847656 100.957031 65.21875 100.507812 C 65.585938 100.058594 65.976562 99.625 66.390625 99.214844 C 66.800781 98.804688 67.230469 98.414062 67.679688 98.042969 C 68.128906 97.675781 68.597656 97.328125 69.082031 97.003906 C 69.566406 96.683594 70.0625 96.382812 70.578125 96.109375 C 71.089844 95.835938 71.617188 95.585938 72.152344 95.363281 C 72.691406 95.140625 73.238281 94.945312 73.792969 94.777344 C 74.351562 94.609375 74.914062 94.464844 75.484375 94.351562 C 76.054688 94.238281 76.632812 94.152344 77.210938 94.097656 C 77.789062 94.039062 78.371094 94.011719 78.953125 94.011719 Z M 78.953125 94.011719 " fill-opacity="1" fill-rule="nonzero"/><path fill="#eaeaea" d="M 95.371094 94.902344 L 287.9375 94.902344 L 287.9375 281.382812 L 95.371094 281.382812 Z M 95.371094 94.902344 " fill-opacity="1" fill-rule="nonzero"/><path fill="#e3e3e3" d="M 171.753906 221.953125 L 95.371094 281.382812 L 95.378906 146.304688 L 171.746094 221.945312 " fill-opacity="1" fill-rule="nonzero"/><path fill="#000000" d="M 230.671875 281.410156 L 72.6875 123.472656 L 288.582031 118.347656 L 287.933594 281.386719 Z M 230.671875 281.410156 " fill-opacity="0.098" fill-rule="nonzero"/><path fill="#efefef" d="M 77.078125 94.082031 L 191.007812 178.308594 L 295.835938 94.109375 Z M 77.078125 94.082031 " fill-opacity="1" fill-rule="nonzero"/><path fill="#de5145" d="M 307.414062 122.316406 C 308.253906 121.730469 309.03125 121.066406 309.742188 120.324219 C 310.453125 119.585938 311.085938 118.78125 311.636719 117.917969 C 312.191406 117.054688 312.652344 116.144531 313.027344 115.1875 C 313.398438 114.230469 313.675781 113.25 313.855469 112.238281 C 314.035156 111.230469 314.113281 110.210938 314.09375 109.183594 C 314.070312 108.160156 313.953125 107.144531 313.730469 106.144531 C 313.507812 105.140625 313.191406 104.171875 312.78125 103.230469 C 312.367188 102.292969 311.867188 101.402344 311.28125 100.558594 C 310.695312 99.71875 310.03125 98.941406 309.289062 98.234375 C 308.546875 97.523438 307.746094 96.890625 306.882812 96.339844 C 306.015625 95.785156 305.105469 95.324219 304.148438 94.953125 C 303.195312 94.578125 302.210938 94.304688 301.199219 94.125 C 300.191406 93.945312 299.171875 93.867188 298.144531 93.886719 C 297.121094 93.910156 296.105469 94.03125 295.105469 94.253906 C 294.101562 94.476562 293.132812 94.792969 292.191406 95.203125 C 291.253906 95.617188 290.363281 96.117188 289.523438 96.707031 L 189.113281 169.75 L 189.105469 169.820312 L 189.089844 169.8125 L 88.710938 96.707031 C 87.859375 96.128906 86.957031 95.636719 86.007812 95.230469 C 85.054688 94.828125 84.074219 94.519531 83.0625 94.304688 C 82.050781 94.089844 81.027344 93.976562 79.992188 93.960938 C 78.957031 93.949219 77.929688 94.03125 76.910156 94.21875 C 75.894531 94.402344 74.902344 94.683594 73.941406 95.0625 C 72.980469 95.4375 72.066406 95.902344 71.195312 96.457031 C 70.328125 97.015625 69.519531 97.648438 68.777344 98.359375 C 68.035156 99.070312 67.371094 99.847656 66.785156 100.6875 C 66.195312 101.527344 65.699219 102.417969 65.289062 103.355469 C 64.878906 104.292969 64.566406 105.261719 64.347656 106.257812 C 64.132812 107.257812 64.015625 108.269531 64 109.289062 C 63.988281 110.308594 64.074219 111.324219 64.261719 112.328125 C 64.449219 113.332031 64.730469 114.308594 65.113281 115.257812 C 65.496094 116.207031 65.96875 117.109375 66.53125 117.964844 C 67.09375 118.824219 67.738281 119.617188 68.457031 120.351562 C 69.179688 121.082031 69.964844 121.738281 70.816406 122.320312 L 70.402344 122.039062 L 189.121094 208.480469 M 307.859375 122.039062 L 188.574219 209.042969 " fill-opacity="1" fill-rule="nonzero"/></svg>