<svg xmlns="http://www.w3.org/2000/svg" xmlns:xlink="http://www.w3.org/1999/xlink" width="260" zoomAndPan="magnify" viewBox="0 0 194.87999 30.000001" height="40" preserveAspectRatio="xMidYMid meet" version="1.0"><defs><g/><clipPath id="id1"><path d="M 10.507812 1.160156 L 37.21875 1.160156 L 37.21875 27.871094 L 10.507812 27.871094 Z M 10.507812 1.160156 " clip-rule="nonzero"/></clipPath><clipPath id="id2"><path d="M 25 8 L 31.546875 8 L 31.546875 21.929688 L 25 21.929688 Z M 25 8 " clip-rule="nonzero"/></clipPath><clipPath id="id3"><path d="M 16.242188 8 L 23 8 L 23 21.929688 L 16.242188 21.929688 Z M 16.242188 8 " clip-rule="nonzero"/></clipPath><clipPath id="id4"><path d="M 17 7.140625 L 24 7.140625 L 24 21 L 17 21 Z M 17 7.140625 " clip-rule="nonzero"/></clipPath><clipPath id="id5"><path d="M 24 7.140625 L 31 7.140625 L 31 21 L 24 21 Z M 24 7.140625 " clip-rule="nonzero"/></clipPath></defs><g fill="#b08a6d" fill-opacity="1"><g transform="translate(66.583474, 7.858075)"><g><path d="M 0.140625 -3.703125 L 0.140625 -4.203125 L 3.3125 -4.203125 L 3.3125 -3.703125 L 2.03125 -3.703125 L 2.03125 0 L 1.484375 0 L 1.484375 -3.703125 Z M 0.140625 -3.703125 "/></g></g></g><g fill="#b08a6d" fill-opacity="1"><g transform="translate(70.029635, 7.858075)"><g><path d="M 3.5625 0 L 2.984375 0 L 2.21875 -1.8125 L 1.09375 -1.8125 L 1.09375 0 L 0.5625 0 L 0.5625 -4.203125 L 2.1875 -4.203125 C 2.488281 -4.203125 2.738281 -4.15625 2.9375 -4.0625 C 3.144531 -3.96875 3.296875 -3.832031 3.390625 -3.65625 C 3.492188 -3.488281 3.546875 -3.285156 3.546875 -3.046875 C 3.546875 -2.828125 3.503906 -2.640625 3.421875 -2.484375 C 3.347656 -2.335938 3.25 -2.21875 3.125 -2.125 C 3 -2.03125 2.867188 -1.957031 2.734375 -1.90625 Z M 2.015625 -2.25 C 2.328125 -2.25 2.566406 -2.3125 2.734375 -2.4375 C 2.910156 -2.570312 3 -2.765625 3 -3.015625 C 3 -3.265625 2.921875 -3.453125 2.765625 -3.578125 C 2.609375 -3.703125 2.398438 -3.765625 2.140625 -3.765625 L 1.09375 -3.765625 L 1.09375 -2.25 Z M 2.015625 -2.25 "/></g></g></g><g fill="#b08a6d" fill-opacity="1"><g transform="translate(73.957734, 7.858075)"><g><path d="M 3.625 -1.453125 C 3.625 -1.128906 3.570312 -0.851562 3.46875 -0.625 C 3.363281 -0.40625 3.195312 -0.234375 2.96875 -0.109375 C 2.738281 0.00390625 2.445312 0.0625 2.09375 0.0625 C 1.726562 0.0625 1.429688 0.00390625 1.203125 -0.109375 C 0.972656 -0.234375 0.804688 -0.410156 0.703125 -0.640625 C 0.609375 -0.878906 0.5625 -1.171875 0.5625 -1.515625 L 0.5625 -4.203125 L 1.109375 -4.203125 L 1.109375 -1.421875 C 1.109375 -1.085938 1.191406 -0.832031 1.359375 -0.65625 C 1.535156 -0.488281 1.78125 -0.40625 2.09375 -0.40625 C 2.300781 -0.40625 2.476562 -0.441406 2.625 -0.515625 C 2.769531 -0.597656 2.882812 -0.710938 2.96875 -0.859375 C 3.050781 -1.003906 3.09375 -1.191406 3.09375 -1.421875 L 3.09375 -4.203125 L 3.625 -4.203125 Z M 4.9375 -4.640625 C 4.9375 -4.410156 4.90625 -4.222656 4.84375 -4.078125 C 4.78125 -3.941406 4.679688 -3.847656 4.546875 -3.796875 C 4.410156 -3.742188 4.226562 -3.726562 4 -3.75 L 4 -4.046875 C 4.09375 -4.046875 4.164062 -4.050781 4.21875 -4.0625 C 4.28125 -4.082031 4.332031 -4.113281 4.375 -4.15625 C 4.414062 -4.195312 4.445312 -4.253906 4.46875 -4.328125 C 4.488281 -4.398438 4.503906 -4.503906 4.515625 -4.640625 Z M 4.9375 -4.640625 "/></g></g></g><g fill="#b08a6d" fill-opacity="1"><g transform="translate(78.660998, 7.858075)"><g><path d="M 2.140625 0.0625 C 1.765625 0.0625 1.441406 -0.0195312 1.171875 -0.1875 C 0.898438 -0.363281 0.6875 -0.609375 0.53125 -0.921875 C 0.382812 -1.242188 0.3125 -1.632812 0.3125 -2.09375 C 0.3125 -2.550781 0.382812 -2.941406 0.53125 -3.265625 C 0.6875 -3.585938 0.898438 -3.832031 1.171875 -4 C 1.441406 -4.175781 1.765625 -4.265625 2.140625 -4.265625 C 2.515625 -4.265625 2.835938 -4.175781 3.109375 -4 C 3.378906 -3.832031 3.585938 -3.585938 3.734375 -3.265625 C 3.878906 -2.941406 3.953125 -2.550781 3.953125 -2.09375 C 3.953125 -1.632812 3.878906 -1.242188 3.734375 -0.921875 C 3.585938 -0.609375 3.378906 -0.363281 3.109375 -0.1875 C 2.835938 -0.0195312 2.515625 0.0625 2.140625 0.0625 Z M 2.140625 -0.40625 C 2.398438 -0.40625 2.617188 -0.460938 2.796875 -0.578125 C 2.984375 -0.703125 3.125 -0.890625 3.21875 -1.140625 C 3.3125 -1.390625 3.359375 -1.707031 3.359375 -2.09375 C 3.359375 -2.476562 3.3125 -2.796875 3.21875 -3.046875 C 3.125 -3.296875 2.984375 -3.484375 2.796875 -3.609375 C 2.617188 -3.734375 2.398438 -3.796875 2.140625 -3.796875 C 1.878906 -3.796875 1.65625 -3.734375 1.46875 -3.609375 C 1.289062 -3.484375 1.148438 -3.296875 1.046875 -3.046875 C 0.953125 -2.796875 0.90625 -2.476562 0.90625 -2.09375 C 0.90625 -1.707031 0.953125 -1.390625 1.046875 -1.140625 C 1.148438 -0.890625 1.289062 -0.703125 1.46875 -0.578125 C 1.65625 -0.460938 1.878906 -0.40625 2.140625 -0.40625 Z M 3.9375 -4.640625 C 3.9375 -4.410156 3.90625 -4.222656 3.84375 -4.078125 C 3.78125 -3.941406 3.679688 -3.847656 3.546875 -3.796875 C 3.410156 -3.742188 3.226562 -3.726562 3 -3.75 L 3 -4.046875 C 3.09375 -4.046875 3.164062 -4.050781 3.21875 -4.0625 C 3.28125 -4.082031 3.332031 -4.113281 3.375 -4.15625 C 3.414062 -4.195312 3.445312 -4.253906 3.46875 -4.328125 C 3.488281 -4.398438 3.503906 -4.503906 3.515625 -4.640625 Z M 1.375 -5.203125 L 0.765625 -5.203125 L 1.5625 -4.359375 L 1.96875 -4.359375 Z M 1.375 -5.203125 "/></g></g></g><g fill="#b08a6d" fill-opacity="1"><g transform="translate(83.222007, 7.858075)"><g><path d="M 3.296875 -4.203125 L 3.828125 -4.203125 L 3.828125 0 L 3.34375 0 L 1.09375 -3.3125 L 1.09375 0 L 0.5625 0 L 0.5625 -4.203125 L 1.0625 -4.203125 L 3.296875 -0.9375 Z M 3.296875 -4.203125 "/></g></g></g><g fill="#b08a6d" fill-opacity="1"><g transform="translate(87.600111, 7.858075)"><g><path d="M 2.09375 0.0625 C 1.726562 0.0625 1.410156 -0.0195312 1.140625 -0.1875 C 0.878906 -0.363281 0.675781 -0.609375 0.53125 -0.921875 C 0.382812 -1.242188 0.3125 -1.632812 0.3125 -2.09375 C 0.3125 -2.550781 0.382812 -2.941406 0.53125 -3.265625 C 0.675781 -3.585938 0.882812 -3.832031 1.15625 -4 C 1.425781 -4.175781 1.75 -4.265625 2.125 -4.265625 C 2.332031 -4.265625 2.53125 -4.226562 2.71875 -4.15625 C 2.90625 -4.082031 3.066406 -3.976562 3.203125 -3.84375 C 3.347656 -3.71875 3.460938 -3.570312 3.546875 -3.40625 C 3.640625 -3.25 3.691406 -3.082031 3.703125 -2.90625 L 3.125 -2.90625 C 3.101562 -3.0625 3.046875 -3.207031 2.953125 -3.34375 C 2.859375 -3.476562 2.738281 -3.582031 2.59375 -3.65625 C 2.445312 -3.738281 2.285156 -3.78125 2.109375 -3.78125 C 1.867188 -3.78125 1.65625 -3.71875 1.46875 -3.59375 C 1.289062 -3.476562 1.148438 -3.296875 1.046875 -3.046875 C 0.941406 -2.804688 0.890625 -2.488281 0.890625 -2.09375 C 0.890625 -1.800781 0.921875 -1.546875 0.984375 -1.328125 C 1.046875 -1.117188 1.132812 -0.945312 1.25 -0.8125 C 1.363281 -0.675781 1.492188 -0.578125 1.640625 -0.515625 C 1.785156 -0.453125 1.945312 -0.421875 2.125 -0.421875 C 2.300781 -0.421875 2.453125 -0.453125 2.578125 -0.515625 C 2.710938 -0.578125 2.820312 -0.65625 2.90625 -0.75 C 3 -0.851562 3.066406 -0.960938 3.109375 -1.078125 C 3.160156 -1.191406 3.1875 -1.300781 3.1875 -1.40625 L 3.21875 -1.78125 L 2.1875 -1.78125 L 2.1875 -2.171875 L 3.765625 -2.171875 L 3.765625 0 L 3.359375 0 L 3.359375 -0.640625 C 3.285156 -0.515625 3.191406 -0.398438 3.078125 -0.296875 C 2.972656 -0.191406 2.835938 -0.101562 2.671875 -0.03125 C 2.515625 0.03125 2.320312 0.0625 2.09375 0.0625 Z M 2.09375 0.0625 "/></g></g></g><g fill="#b08a6d" fill-opacity="1"><g transform="translate(91.856279, 7.858075)"><g/></g></g><g fill="#b08a6d" fill-opacity="1"><g transform="translate(93.194679, 7.858075)"><g><path d="M 0.140625 -3.703125 L 0.140625 -4.203125 L 3.3125 -4.203125 L 3.3125 -3.703125 L 2.03125 -3.703125 L 2.03125 0 L 1.484375 0 L 1.484375 -3.703125 Z M 0.140625 -3.703125 "/></g></g></g><g fill="#b08a6d" fill-opacity="1"><g transform="translate(96.64084, 7.858075)"><g><path d="M 3.359375 -1.9375 L 1.09375 -1.9375 L 1.09375 0 L 0.5625 0 L 0.5625 -4.203125 L 1.09375 -4.203125 L 1.09375 -2.40625 L 3.359375 -2.40625 L 3.359375 -4.203125 L 3.890625 -4.203125 L 3.890625 0 L 3.359375 0 Z M 3.359375 -1.9375 "/></g></g></g><g fill="#b08a6d" fill-opacity="1"><g transform="translate(101.08862, 7.858075)"><g><path d="M 0.5625 0 L 0.5625 -4.203125 L 1.96875 -4.203125 C 2.269531 -4.203125 2.535156 -4.148438 2.765625 -4.046875 C 3.003906 -3.953125 3.191406 -3.804688 3.328125 -3.609375 C 3.460938 -3.410156 3.53125 -3.164062 3.53125 -2.875 C 3.53125 -2.59375 3.46875 -2.351562 3.34375 -2.15625 C 3.21875 -1.957031 3.039062 -1.804688 2.8125 -1.703125 C 2.59375 -1.609375 2.335938 -1.5625 2.046875 -1.5625 L 1.109375 -1.5625 L 1.109375 0 Z M 1.109375 -2.015625 L 2.03125 -2.015625 C 2.320312 -2.015625 2.554688 -2.09375 2.734375 -2.25 C 2.921875 -2.40625 3.015625 -2.625 3.015625 -2.90625 C 3.015625 -3.1875 2.921875 -3.394531 2.734375 -3.53125 C 2.546875 -3.675781 2.304688 -3.75 2.015625 -3.75 L 1.109375 -3.75 Z M 1.109375 -2.015625 "/></g></g></g><g fill="#b08a6d" fill-opacity="1"><g transform="translate(104.784455, 7.858075)"><g><path d="M 0.140625 -3.703125 L 0.140625 -4.203125 L 3.3125 -4.203125 L 3.3125 -3.703125 L 2.03125 -3.703125 L 2.03125 0 L 1.484375 0 L 1.484375 -3.703125 Z M 0.140625 -3.703125 "/></g></g></g><g fill="#b08a6d" fill-opacity="1"><g transform="translate(108.230616, 7.858075)"><g/></g></g><g fill="#b08a6d" fill-opacity="1"><g transform="translate(109.569016, 7.858075)"><g><path d="M 3.296875 -4.203125 L 3.828125 -4.203125 L 3.828125 0 L 3.34375 0 L 1.09375 -3.3125 L 1.09375 0 L 0.5625 0 L 0.5625 -4.203125 L 1.0625 -4.203125 L 3.296875 -0.9375 Z M 3.296875 -4.203125 "/></g></g></g><g fill="#b08a6d" fill-opacity="1"><g transform="translate(113.947119, 7.858075)"><g><path d="M 2.09375 0.0625 C 1.726562 0.0625 1.410156 -0.0195312 1.140625 -0.1875 C 0.878906 -0.363281 0.675781 -0.609375 0.53125 -0.921875 C 0.382812 -1.242188 0.3125 -1.632812 0.3125 -2.09375 C 0.3125 -2.550781 0.382812 -2.941406 0.53125 -3.265625 C 0.675781 -3.585938 0.882812 -3.832031 1.15625 -4 C 1.425781 -4.175781 1.75 -4.265625 2.125 -4.265625 C 2.332031 -4.265625 2.53125 -4.226562 2.71875 -4.15625 C 2.90625 -4.082031 3.066406 -3.976562 3.203125 -3.84375 C 3.347656 -3.71875 3.460938 -3.570312 3.546875 -3.40625 C 3.640625 -3.25 3.691406 -3.082031 3.703125 -2.90625 L 3.125 -2.90625 C 3.101562 -3.0625 3.046875 -3.207031 2.953125 -3.34375 C 2.859375 -3.476562 2.738281 -3.582031 2.59375 -3.65625 C 2.445312 -3.738281 2.285156 -3.78125 2.109375 -3.78125 C 1.867188 -3.78125 1.65625 -3.71875 1.46875 -3.59375 C 1.289062 -3.476562 1.148438 -3.296875 1.046875 -3.046875 C 0.941406 -2.804688 0.890625 -2.488281 0.890625 -2.09375 C 0.890625 -1.800781 0.921875 -1.546875 0.984375 -1.328125 C 1.046875 -1.117188 1.132812 -0.945312 1.25 -0.8125 C 1.363281 -0.675781 1.492188 -0.578125 1.640625 -0.515625 C 1.785156 -0.453125 1.945312 -0.421875 2.125 -0.421875 C 2.300781 -0.421875 2.453125 -0.453125 2.578125 -0.515625 C 2.710938 -0.578125 2.820312 -0.65625 2.90625 -0.75 C 3 -0.851562 3.066406 -0.960938 3.109375 -1.078125 C 3.160156 -1.191406 3.1875 -1.300781 3.1875 -1.40625 L 3.21875 -1.78125 L 2.1875 -1.78125 L 2.1875 -2.171875 L 3.765625 -2.171875 L 3.765625 0 L 3.359375 0 L 3.359375 -0.640625 C 3.285156 -0.515625 3.191406 -0.398438 3.078125 -0.296875 C 2.972656 -0.191406 2.835938 -0.101562 2.671875 -0.03125 C 2.515625 0.03125 2.320312 0.0625 2.09375 0.0625 Z M 2.09375 0.0625 "/></g></g></g><g fill="#b08a6d" fill-opacity="1"><g transform="translate(118.203287, 7.858075)"><g><path d="M 3.625 -1.453125 C 3.625 -1.128906 3.570312 -0.851562 3.46875 -0.625 C 3.363281 -0.40625 3.195312 -0.234375 2.96875 -0.109375 C 2.738281 0.00390625 2.445312 0.0625 2.09375 0.0625 C 1.726562 0.0625 1.429688 0.00390625 1.203125 -0.109375 C 0.972656 -0.234375 0.804688 -0.410156 0.703125 -0.640625 C 0.609375 -0.878906 0.5625 -1.171875 0.5625 -1.515625 L 0.5625 -4.203125 L 1.109375 -4.203125 L 1.109375 -1.421875 C 1.109375 -1.085938 1.191406 -0.832031 1.359375 -0.65625 C 1.535156 -0.488281 1.78125 -0.40625 2.09375 -0.40625 C 2.300781 -0.40625 2.476562 -0.441406 2.625 -0.515625 C 2.769531 -0.597656 2.882812 -0.710938 2.96875 -0.859375 C 3.050781 -1.003906 3.09375 -1.191406 3.09375 -1.421875 L 3.09375 -4.203125 L 3.625 -4.203125 Z M 3.625 -1.453125 "/></g></g></g><g fill="#b08a6d" fill-opacity="1"><g transform="translate(122.270738, 7.858075)"><g><path d="M 3.46875 -4.203125 L 2.03125 -1.78125 L 2.03125 0 L 1.5 0 L 1.5 -1.796875 L 0.0625 -4.203125 L 0.65625 -4.203125 L 1.765625 -2.265625 L 2.875 -4.203125 Z M 3.46875 -4.203125 "/></g></g></g><g fill="#b08a6d" fill-opacity="1"><g transform="translate(125.795288, 7.858075)"><g><path d="M 0.5625 0 L 0.5625 -4.203125 L 3.203125 -4.203125 L 3.203125 -3.734375 L 1.09375 -3.734375 L 1.09375 -2.359375 L 3 -2.359375 L 3 -1.890625 L 1.09375 -1.890625 L 1.09375 -0.484375 L 3.265625 -0.484375 L 3.265625 0 Z M 2.34375 -4.359375 L 1.9375 -4.734375 L 1.5 -4.359375 L 1.03125 -4.359375 L 1.765625 -5.015625 L 2.140625 -5.015625 L 2.859375 -4.359375 Z M 2.875 -5.71875 C 2.820312 -5.6875 2.753906 -5.648438 2.671875 -5.609375 C 2.585938 -5.578125 2.488281 -5.5625 2.375 -5.5625 C 2.269531 -5.5625 2.175781 -5.570312 2.09375 -5.59375 C 2.019531 -5.625 1.945312 -5.648438 1.875 -5.671875 C 1.800781 -5.691406 1.71875 -5.703125 1.625 -5.703125 C 1.53125 -5.703125 1.453125 -5.6875 1.390625 -5.65625 C 1.335938 -5.625 1.28125 -5.585938 1.21875 -5.546875 L 1.125 -5.859375 C 1.1875 -5.921875 1.253906 -5.972656 1.328125 -6.015625 C 1.398438 -6.054688 1.492188 -6.078125 1.609375 -6.078125 C 1.703125 -6.078125 1.789062 -6.0625 1.875 -6.03125 C 1.957031 -6.007812 2.035156 -5.984375 2.109375 -5.953125 C 2.191406 -5.929688 2.28125 -5.921875 2.375 -5.921875 C 2.457031 -5.921875 2.53125 -5.9375 2.59375 -5.96875 C 2.65625 -6 2.71875 -6.035156 2.78125 -6.078125 Z M 2.875 -5.71875 "/></g></g></g><g fill="#b08a6d" fill-opacity="1"><g transform="translate(129.398219, 7.858075)"><g><path d="M 3.296875 -4.203125 L 3.828125 -4.203125 L 3.828125 0 L 3.34375 0 L 1.09375 -3.3125 L 1.09375 0 L 0.5625 0 L 0.5625 -4.203125 L 1.0625 -4.203125 L 3.296875 -0.9375 Z M 3.296875 -4.203125 "/></g></g></g><g fill="#b08a6d" fill-opacity="1"><g transform="translate(133.776322, 7.858075)"><g/></g></g><g fill="#b08a6d" fill-opacity="1"><g transform="translate(135.114722, 7.858075)"><g><path d="M 3.734375 -4.203125 L 2.25 0 L 1.59375 0 L 0.140625 -4.203125 L 0.671875 -4.203125 L 1.921875 -0.609375 L 3.203125 -4.203125 Z M 3.734375 -4.203125 "/></g></g></g><g fill="#b08a6d" fill-opacity="1"><g transform="translate(138.98185, 7.858075)"><g><path d="M 0.234375 0 L 1.765625 -4.203125 L 2.375 -4.203125 L 3.890625 0 L 3.34375 0 L 2.921875 -1.15625 L 1.203125 -1.15625 L 0.78125 0 Z M 1.34375 -1.640625 L 2.78125 -1.640625 L 2.0625 -3.671875 Z M 2.828125 -4.984375 C 2.796875 -4.859375 2.738281 -4.75 2.65625 -4.65625 C 2.570312 -4.5625 2.46875 -4.488281 2.34375 -4.4375 C 2.21875 -4.382812 2.082031 -4.359375 1.9375 -4.359375 C 1.789062 -4.359375 1.65625 -4.378906 1.53125 -4.421875 C 1.414062 -4.472656 1.316406 -4.546875 1.234375 -4.640625 C 1.148438 -4.734375 1.09375 -4.847656 1.0625 -4.984375 L 1.453125 -4.984375 C 1.484375 -4.890625 1.539062 -4.8125 1.625 -4.75 C 1.707031 -4.695312 1.8125 -4.671875 1.9375 -4.671875 C 2.0625 -4.671875 2.164062 -4.695312 2.25 -4.75 C 2.34375 -4.8125 2.40625 -4.890625 2.4375 -4.984375 Z M 2.828125 -4.984375 "/></g></g></g><g fill="#b08a6d" fill-opacity="1"><g transform="translate(143.104469, 7.858075)"><g><path d="M 3.296875 -4.203125 L 3.828125 -4.203125 L 3.828125 0 L 3.34375 0 L 1.09375 -3.3125 L 1.09375 0 L 0.5625 0 L 0.5625 -4.203125 L 1.0625 -4.203125 L 3.296875 -0.9375 Z M 3.296875 -4.203125 "/></g></g></g><g fill="#b08a6d" fill-opacity="1"><g transform="translate(147.482572, 7.858075)"><g/></g></g><g fill="#b08a6d" fill-opacity="1"><g transform="translate(148.820972, 7.858075)"><g><path d="M 0.234375 0 L 1.765625 -4.203125 L 2.375 -4.203125 L 3.890625 0 L 3.34375 0 L 2.921875 -1.15625 L 1.203125 -1.15625 L 0.78125 0 Z M 1.34375 -1.640625 L 2.78125 -1.640625 L 2.0625 -3.671875 Z M 1.34375 -1.640625 "/></g></g></g><g clip-path="url(#id1)"><path fill="#004aad" d="M 36.796875 14.554688 C 36.796875 13.160156 37.488281 11.679688 37.0625 10.425781 C 36.625 9.121094 35.140625 8.320312 34.320312 7.234375 C 33.492188 6.140625 33.152344 4.542969 32.015625 3.746094 C 30.886719 2.960938 29.203125 3.136719 27.851562 2.710938 C 26.542969 2.304688 25.300781 1.191406 23.851562 1.191406 C 22.402344 1.191406 21.152344 2.300781 19.851562 2.710938 C 18.5 3.132812 16.8125 2.957031 15.683594 3.746094 C 14.546875 4.542969 14.203125 6.140625 13.375 7.234375 C 12.554688 8.320312 11.074219 9.121094 10.628906 10.425781 C 10.207031 11.679688 10.898438 13.160156 10.898438 14.554688 C 10.898438 15.949219 10.203125 17.425781 10.628906 18.683594 C 11.066406 19.984375 12.554688 20.789062 13.371094 21.871094 C 14.199219 22.96875 14.539062 24.5625 15.679688 25.359375 C 16.804688 26.152344 18.488281 25.972656 19.84375 26.398438 C 21.152344 26.800781 22.398438 27.914062 23.847656 27.914062 C 25.292969 27.914062 26.542969 26.808594 27.847656 26.398438 C 29.199219 25.972656 30.886719 26.152344 32.015625 25.359375 C 33.152344 24.5625 33.492188 22.96875 34.320312 21.871094 C 35.144531 20.789062 36.625 19.984375 37.0625 18.683594 C 37.488281 17.421875 36.796875 15.941406 36.796875 14.554688 Z M 36.796875 14.554688 " fill-opacity="1" fill-rule="nonzero"/></g><g clip-path="url(#id2)"><path fill="#ffffff" d="M 30.757812 8.648438 L 30.757812 18.539062 L 25.527344 20.808594 L 25.527344 21.929688 L 31.546875 19.320312 L 31.546875 8.308594 L 30.757812 8.648438 " fill-opacity="1" fill-rule="nonzero"/></g><g clip-path="url(#id3)"><path fill="#ffffff" d="M 17.03125 8.648438 L 17.03125 18.539062 L 22.261719 20.808594 L 22.261719 21.929688 L 16.242188 19.320312 L 16.242188 8.308594 L 17.03125 8.648438 " fill-opacity="1" fill-rule="nonzero"/></g><g clip-path="url(#id4)"><path fill="#ffffff" d="M 17.511719 13.699219 C 18.234375 13.703125 18.863281 13.683594 19.382812 13.597656 C 19.492188 13.578125 19.59375 13.511719 19.695312 13.472656 C 19.730469 13.460938 19.765625 13.449219 19.800781 13.4375 C 19.933594 13.390625 20.058594 13.351562 20.160156 13.324219 C 20.304688 13.285156 20.453125 13.25 20.574219 13.167969 C 20.582031 13.164062 20.585938 13.160156 20.59375 13.15625 C 20.601562 13.148438 20.613281 13.144531 20.625 13.136719 C 20.648438 13.121094 20.667969 13.105469 20.691406 13.09375 C 20.707031 13.085938 20.722656 13.074219 20.742188 13.066406 C 21 12.929688 21.324219 12.847656 21.453125 12.820312 C 21.488281 12.808594 21.507812 12.804688 21.507812 12.804688 C 21.523438 12.804688 21.535156 12.800781 21.546875 12.800781 C 21.601562 12.796875 21.636719 12.824219 21.652344 12.851562 C 21.664062 12.863281 21.671875 12.878906 21.671875 12.890625 C 21.703125 12.988281 21.554688 13.058594 21.554688 13.058594 C 21.351562 13.152344 21.148438 13.234375 21.039062 13.308594 C 20.621094 13.585938 20.710938 13.636719 20.710938 13.636719 C 20.722656 13.640625 20.742188 13.644531 20.761719 13.644531 C 20.847656 13.644531 20.988281 13.613281 21.144531 13.578125 C 21.183594 13.570312 21.222656 13.5625 21.261719 13.554688 C 21.339844 13.539062 21.417969 13.523438 21.488281 13.515625 C 21.523438 13.511719 21.554688 13.507812 21.585938 13.507812 C 21.753906 13.488281 21.925781 13.472656 22.09375 13.453125 C 22.199219 13.441406 22.363281 13.429688 22.4375 13.519531 C 22.457031 13.539062 22.46875 13.5625 22.476562 13.597656 C 22.5 13.734375 22.261719 13.785156 22.261719 13.785156 C 21.90625 13.792969 21.664062 13.859375 21.46875 13.882812 C 21.230469 13.910156 21.113281 13.945312 21.058594 13.972656 C 21.03125 13.984375 21.019531 13.996094 21.011719 14.007812 C 21.007812 14.011719 21.007812 14.019531 21.007812 14.023438 C 21.007812 14.027344 21.011719 14.03125 21.011719 14.03125 C 21.015625 14.039062 21.027344 14.046875 21.046875 14.050781 C 21.160156 14.082031 21.507812 14.078125 21.71875 14.082031 C 21.996094 14.085938 22.269531 14.085938 22.546875 14.085938 C 22.582031 14.085938 22.621094 14.085938 22.65625 14.097656 C 22.664062 14.101562 22.675781 14.105469 22.683594 14.109375 C 22.683594 14.109375 22.6875 14.109375 22.6875 14.113281 C 22.695312 14.113281 22.699219 14.117188 22.707031 14.121094 C 22.707031 14.125 22.710938 14.125 22.710938 14.128906 C 22.71875 14.132812 22.726562 14.136719 22.730469 14.144531 C 22.734375 14.148438 22.738281 14.152344 22.742188 14.15625 C 22.742188 14.160156 22.746094 14.160156 22.746094 14.164062 C 22.761719 14.179688 22.769531 14.199219 22.777344 14.21875 C 22.785156 14.242188 22.785156 14.269531 22.777344 14.289062 C 22.742188 14.410156 22.613281 14.4375 22.503906 14.441406 C 22.253906 14.449219 22.007812 14.492188 21.757812 14.496094 C 21.105469 14.503906 21.082031 14.574219 21.074219 14.605469 C 21.0625 14.644531 21.828125 14.738281 22.074219 14.753906 C 22.09375 14.753906 22.113281 14.757812 22.132812 14.761719 C 22.25 14.773438 22.378906 14.78125 22.480469 14.851562 C 22.546875 14.898438 22.640625 15 22.5625 15.078125 C 22.519531 15.125 22.414062 15.160156 22.351562 15.15625 C 21.917969 15.128906 21.597656 15.070312 21.375 15.089844 C 21.078125 15.113281 20.523438 15.054688 20.460938 15.175781 C 20.402344 15.289062 20.445312 15.417969 20.503906 15.511719 C 20.53125 15.558594 20.5625 15.597656 20.585938 15.617188 L 20.589844 15.621094 C 20.597656 15.628906 20.605469 15.632812 20.609375 15.636719 C 20.667969 15.667969 20.75 15.738281 20.820312 15.820312 C 20.824219 15.824219 20.828125 15.828125 20.832031 15.835938 C 20.863281 15.871094 20.890625 15.910156 20.910156 15.949219 C 20.957031 16.023438 20.984375 16.101562 20.972656 16.164062 C 20.945312 16.320312 20.78125 16.195312 20.671875 16.109375 C 20.65625 16.097656 20.640625 16.085938 20.628906 16.074219 C 20.527344 16 20.246094 15.9375 20.183594 15.867188 C 20.152344 15.835938 20.117188 15.804688 20.085938 15.773438 L 20.082031 15.769531 C 19.636719 15.351562 19.085938 15.195312 19.074219 15.191406 C 18.878906 15.140625 18.285156 15.09375 17.511719 15.0625 L 17.511719 18.152344 L 23.527344 20.765625 L 23.527344 9.753906 L 17.511719 7.144531 L 17.511719 13.699219 " fill-opacity="1" fill-rule="nonzero"/></g><g clip-path="url(#id5)"><path fill="#ffffff" d="M 27.398438 12.699219 C 27.414062 12.710938 27.433594 12.726562 27.445312 12.734375 C 27.5625 12.824219 27.886719 12.894531 27.957031 12.972656 C 27.992188 13.011719 28.03125 13.046875 28.066406 13.082031 L 28.070312 13.085938 C 28.582031 13.566406 29.214844 13.742188 29.226562 13.746094 C 29.382812 13.789062 29.761719 13.828125 30.277344 13.859375 L 30.277344 7.144531 L 24.257812 9.753906 L 24.257812 20.765625 L 30.277344 18.152344 L 30.277344 15.460938 C 29.753906 15.476562 29.285156 15.507812 28.875 15.578125 C 28.746094 15.597656 28.632812 15.671875 28.515625 15.714844 C 28.472656 15.730469 28.433594 15.746094 28.398438 15.757812 C 28.242188 15.8125 28.101562 15.859375 27.980469 15.890625 C 27.820312 15.929688 27.648438 15.972656 27.507812 16.066406 C 27.5 16.070312 27.496094 16.074219 27.488281 16.078125 C 27.476562 16.085938 27.464844 16.09375 27.453125 16.101562 C 27.425781 16.121094 27.398438 16.136719 27.375 16.152344 C 27.355469 16.160156 27.335938 16.171875 27.320312 16.179688 C 27.019531 16.339844 26.648438 16.433594 26.503906 16.464844 C 26.460938 16.476562 26.4375 16.480469 26.4375 16.480469 C 26.421875 16.484375 26.40625 16.488281 26.394531 16.488281 C 26.332031 16.492188 26.292969 16.460938 26.273438 16.429688 C 26.261719 16.414062 26.253906 16.398438 26.25 16.386719 C 26.21875 16.273438 26.382812 16.191406 26.382812 16.191406 C 26.617188 16.085938 26.851562 15.988281 26.976562 15.90625 C 27.457031 15.589844 27.351562 15.53125 27.351562 15.53125 C 27.335938 15.523438 27.316406 15.523438 27.292969 15.523438 C 27.195312 15.519531 27.03125 15.558594 26.855469 15.597656 C 26.8125 15.605469 26.765625 15.613281 26.722656 15.625 C 26.632812 15.640625 26.542969 15.660156 26.460938 15.667969 C 26.421875 15.671875 26.386719 15.675781 26.347656 15.679688 C 26.15625 15.699219 25.960938 15.71875 25.769531 15.738281 C 25.648438 15.753906 25.460938 15.769531 25.371094 15.664062 C 25.351562 15.640625 25.339844 15.613281 25.332031 15.574219 C 25.300781 15.417969 25.578125 15.359375 25.578125 15.359375 C 25.980469 15.351562 26.257812 15.277344 26.488281 15.25 C 26.757812 15.214844 26.890625 15.175781 26.957031 15.144531 C 26.984375 15.128906 27 15.117188 27.007812 15.105469 C 27.011719 15.097656 27.011719 15.09375 27.011719 15.089844 C 27.011719 15.082031 27.007812 15.074219 27.007812 15.074219 C 27.003906 15.066406 26.988281 15.058594 26.96875 15.054688 C 26.839844 15.015625 26.441406 15.023438 26.199219 15.019531 C 25.882812 15.015625 25.566406 15.011719 25.25 15.011719 C 25.207031 15.011719 25.164062 15.011719 25.121094 15 C 25.113281 15 25.105469 14.996094 25.09375 14.988281 C 25.09375 14.988281 25.089844 14.988281 25.085938 14.984375 C 25.082031 14.980469 25.074219 14.976562 25.066406 14.972656 C 25.066406 14.972656 25.0625 14.96875 25.058594 14.96875 C 25.050781 14.960938 25.046875 14.953125 25.039062 14.949219 C 25.035156 14.945312 25.03125 14.9375 25.027344 14.933594 C 25.023438 14.929688 25.023438 14.929688 25.019531 14.925781 C 25.003906 14.90625 24.992188 14.882812 24.988281 14.859375 C 24.976562 14.835938 24.976562 14.808594 24.984375 14.78125 C 25.023438 14.644531 25.171875 14.613281 25.296875 14.609375 C 25.582031 14.597656 25.867188 14.550781 26.15625 14.546875 C 26.902344 14.535156 26.925781 14.457031 26.9375 14.421875 C 26.949219 14.378906 26.070312 14.269531 25.789062 14.25 C 25.769531 14.246094 25.75 14.246094 25.722656 14.242188 C 25.589844 14.230469 25.441406 14.21875 25.328125 14.136719 C 25.25 14.082031 25.140625 13.96875 25.230469 13.878906 C 25.28125 13.824219 25.398438 13.785156 25.472656 13.789062 C 25.96875 13.820312 26.335938 13.886719 26.589844 13.867188 C 26.933594 13.835938 27.570312 13.90625 27.640625 13.765625 C 27.707031 13.636719 27.65625 13.488281 27.589844 13.378906 C 27.558594 13.328125 27.523438 13.285156 27.496094 13.257812 L 27.492188 13.253906 C 27.480469 13.25 27.472656 13.242188 27.46875 13.238281 C 27.398438 13.203125 27.308594 13.125 27.226562 13.027344 C 27.222656 13.023438 27.21875 13.019531 27.214844 13.011719 C 27.179688 12.972656 27.148438 12.925781 27.121094 12.882812 C 27.070312 12.796875 27.042969 12.707031 27.054688 12.632812 C 27.082031 12.457031 27.273438 12.601562 27.398438 12.699219 " fill-opacity="1" fill-rule="nonzero"/></g><g fill="#ab1616" fill-opacity="1"><g transform="translate(40.016638, 22.974197)"><g><path d="M 6.734375 -8.953125 L 9.0625 -8.953125 L 9.0625 0 L 6.734375 0 L 6.734375 -3.625 L 3.125 -3.625 L 3.125 0 L 0.8125 0 L 0.8125 -8.953125 L 3.125 -8.953125 L 3.125 -5.46875 L 6.734375 -5.46875 Z M 6.734375 -8.953125 "/></g></g></g><g fill="#ab1616" fill-opacity="1"><g transform="translate(49.876845, 22.974197)"><g><path d="M 0.8125 0 L 0.8125 -8.953125 L 7.1875 -8.953125 L 7.1875 -7.140625 L 3.109375 -7.140625 L 3.109375 -5.453125 L 6.9375 -5.453125 L 6.9375 -3.640625 L 3.109375 -3.640625 L 3.109375 -1.8125 L 7.1875 -1.8125 L 7.1875 0 Z M 3.21875 0.71875 L 5.21875 0.71875 L 5.21875 2.609375 L 3.21875 2.609375 Z M 3.5 -9.71875 L 1.859375 -9.71875 L 3.609375 -11.703125 L 4.84375 -11.703125 L 6.59375 -9.71875 L 4.953125 -9.71875 L 4.234375 -10.703125 Z M 3.5 -9.71875 "/></g></g></g><g fill="#ab1616" fill-opacity="1"><g transform="translate(57.473226, 22.974197)"><g/></g></g><g fill="#ab1616" fill-opacity="1"><g transform="translate(61.120499, 22.974197)"><g><path d="M 2.8125 0 L 2.8125 -7.046875 L 0.15625 -7.046875 L 0.15625 -8.953125 L 7.875 -8.953125 L 7.875 -7.046875 L 5.203125 -7.046875 L 5.203125 0 Z M 2.8125 0 "/></g></g></g><g fill="#ab1616" fill-opacity="1"><g transform="translate(69.144494, 22.974197)"><g><path d="M 6.734375 -8.953125 L 9.0625 -8.953125 L 9.0625 0 L 6.734375 0 L 6.734375 -3.625 L 3.125 -3.625 L 3.125 0 L 0.8125 0 L 0.8125 -8.953125 L 3.125 -8.953125 L 3.125 -5.46875 L 6.734375 -5.46875 Z M 6.734375 -8.953125 "/></g></g></g><g fill="#ab1616" fill-opacity="1"><g transform="translate(79.004701, 22.974197)"><g><path d="M 5.0625 0.109375 C 4.15625 0.109375 3.359375 -0.0703125 2.671875 -0.4375 C 1.992188 -0.8125 1.472656 -1.347656 1.109375 -2.046875 C 0.742188 -2.742188 0.5625 -3.554688 0.5625 -4.484375 C 0.5625 -5.421875 0.742188 -6.234375 1.109375 -6.921875 C 1.484375 -7.609375 2.007812 -8.132812 2.6875 -8.5 C 3.363281 -8.875 4.15625 -9.0625 5.0625 -9.0625 C 5.976562 -9.0625 6.773438 -8.875 7.453125 -8.5 C 8.128906 -8.132812 8.644531 -7.609375 9 -6.921875 C 9.363281 -6.234375 9.546875 -5.421875 9.546875 -4.484375 C 9.546875 -3.554688 9.363281 -2.742188 9 -2.046875 C 8.644531 -1.347656 8.128906 -0.8125 7.453125 -0.4375 C 6.773438 -0.0703125 5.976562 0.109375 5.0625 0.109375 Z M 5.0625 -1.6875 C 5.738281 -1.6875 6.265625 -1.925781 6.640625 -2.40625 C 7.023438 -2.882812 7.21875 -3.578125 7.21875 -4.484375 C 7.21875 -5.390625 7.023438 -6.078125 6.640625 -6.546875 C 6.265625 -7.023438 5.738281 -7.265625 5.0625 -7.265625 C 4.394531 -7.265625 3.875 -7.03125 3.5 -6.5625 C 3.125 -6.09375 2.9375 -5.398438 2.9375 -4.484375 C 2.9375 -3.566406 3.125 -2.867188 3.5 -2.390625 C 3.875 -1.921875 4.394531 -1.6875 5.0625 -1.6875 Z M 7.34375 -11.09375 L 6.296875 -11.09375 L 7.109375 -12.875 L 8.890625 -12.875 Z M 4.296875 -9.71875 L 2.6875 -9.71875 L 4.4375 -11.4375 L 5.671875 -11.4375 L 7.421875 -9.71875 L 5.8125 -9.71875 L 5.0625 -10.46875 Z M 4.296875 -9.71875 "/></g></g></g><g fill="#ab1616" fill-opacity="1"><g transform="translate(89.129024, 22.974197)"><g><path d="M 6.59375 -8.953125 L 8.8125 -8.953125 L 8.8125 0 L 7.0625 0 L 3 -5.078125 L 3 0 L 0.8125 0 L 0.8125 -8.953125 L 2.53125 -8.953125 L 6.59375 -3.90625 Z M 6.59375 -8.953125 "/></g></g></g><g fill="#ab1616" fill-opacity="1"><g transform="translate(98.762848, 22.974197)"><g><path d="M 8.75 -5.0625 L 8.75 -0.5625 C 8.269531 -0.34375 7.734375 -0.175781 7.140625 -0.0625 C 6.554688 0.0507812 5.953125 0.109375 5.328125 0.109375 C 4.359375 0.109375 3.515625 -0.0703125 2.796875 -0.4375 C 2.078125 -0.8125 1.523438 -1.34375 1.140625 -2.03125 C 0.753906 -2.71875 0.5625 -3.535156 0.5625 -4.484375 C 0.5625 -5.410156 0.753906 -6.21875 1.140625 -6.90625 C 1.523438 -7.601562 2.070312 -8.132812 2.78125 -8.5 C 3.488281 -8.875 4.3125 -9.0625 5.25 -9.0625 C 5.894531 -9.0625 6.503906 -8.976562 7.078125 -8.8125 C 7.648438 -8.644531 8.117188 -8.414062 8.484375 -8.125 L 7.734375 -6.453125 C 7.328125 -6.722656 6.929688 -6.914062 6.546875 -7.03125 C 6.160156 -7.15625 5.753906 -7.21875 5.328125 -7.21875 C 4.523438 -7.21875 3.925781 -6.992188 3.53125 -6.546875 C 3.144531 -6.097656 2.953125 -5.410156 2.953125 -4.484375 C 2.953125 -3.535156 3.15625 -2.828125 3.5625 -2.359375 C 3.96875 -1.898438 4.597656 -1.671875 5.453125 -1.671875 C 5.835938 -1.671875 6.226562 -1.710938 6.625 -1.796875 L 6.625 -3.453125 L 5.0625 -3.453125 L 5.0625 -5.0625 Z M 8.75 -5.0625 "/></g></g></g><g fill="#ab1616" fill-opacity="1"><g transform="translate(108.208023, 22.974197)"><g/></g></g><g fill="#ab1616" fill-opacity="1"><g transform="translate(111.855295, 22.974197)"><g><path d="M 2.8125 0 L 2.8125 -7.046875 L 0.15625 -7.046875 L 0.15625 -8.953125 L 7.875 -8.953125 L 7.875 -7.046875 L 5.203125 -7.046875 L 5.203125 0 Z M 2.8125 0 "/></g></g></g><g fill="#ab1616" fill-opacity="1"><g transform="translate(119.879291, 22.974197)"><g><path d="M 6.734375 -8.953125 L 9.0625 -8.953125 L 9.0625 0 L 6.734375 0 L 6.734375 -3.625 L 3.125 -3.625 L 3.125 0 L 0.8125 0 L 0.8125 -8.953125 L 3.125 -8.953125 L 3.125 -5.46875 L 6.734375 -5.46875 Z M 6.734375 -8.953125 "/></g></g></g><g fill="#ab1616" fill-opacity="1"><g transform="translate(129.739498, 22.974197)"><g><path d="M 5.0625 0.109375 C 4.15625 0.109375 3.359375 -0.0703125 2.671875 -0.4375 C 1.992188 -0.8125 1.472656 -1.347656 1.109375 -2.046875 C 0.742188 -2.742188 0.5625 -3.554688 0.5625 -4.484375 C 0.5625 -5.421875 0.742188 -6.234375 1.109375 -6.921875 C 1.484375 -7.609375 2.007812 -8.132812 2.6875 -8.5 C 3.363281 -8.875 4.15625 -9.0625 5.0625 -9.0625 C 5.976562 -9.0625 6.773438 -8.875 7.453125 -8.5 C 8.128906 -8.132812 8.644531 -7.609375 9 -6.921875 C 9.363281 -6.234375 9.546875 -5.421875 9.546875 -4.484375 C 9.546875 -3.554688 9.363281 -2.742188 9 -2.046875 C 8.644531 -1.347656 8.128906 -0.8125 7.453125 -0.4375 C 6.773438 -0.0703125 5.976562 0.109375 5.0625 0.109375 Z M 5.0625 -1.6875 C 5.738281 -1.6875 6.265625 -1.925781 6.640625 -2.40625 C 7.023438 -2.882812 7.21875 -3.578125 7.21875 -4.484375 C 7.21875 -5.390625 7.023438 -6.078125 6.640625 -6.546875 C 6.265625 -7.023438 5.738281 -7.265625 5.0625 -7.265625 C 4.394531 -7.265625 3.875 -7.03125 3.5 -6.5625 C 3.125 -6.09375 2.9375 -5.398438 2.9375 -4.484375 C 2.9375 -3.566406 3.125 -2.867188 3.5 -2.390625 C 3.875 -1.921875 4.394531 -1.6875 5.0625 -1.6875 Z M 4.328125 -9.71875 L 2.6875 -9.71875 L 4.4375 -11.703125 L 5.671875 -11.703125 L 7.421875 -9.71875 L 5.78125 -9.71875 L 5.0625 -10.703125 Z M 4.328125 -9.71875 "/></g></g></g><g fill="#ab1616" fill-opacity="1"><g transform="translate(139.86382, 22.974197)"><g><path d="M 6.59375 -8.953125 L 8.8125 -8.953125 L 8.8125 0 L 7.0625 0 L 3 -5.078125 L 3 0 L 0.8125 0 L 0.8125 -8.953125 L 2.53125 -8.953125 L 6.59375 -3.90625 Z M 6.59375 -8.953125 "/></g></g></g><g fill="#ab1616" fill-opacity="1"><g transform="translate(149.497645, 22.974197)"><g><path d="M 8.75 -5.0625 L 8.75 -0.5625 C 8.269531 -0.34375 7.734375 -0.175781 7.140625 -0.0625 C 6.554688 0.0507812 5.953125 0.109375 5.328125 0.109375 C 4.359375 0.109375 3.515625 -0.0703125 2.796875 -0.4375 C 2.078125 -0.8125 1.523438 -1.34375 1.140625 -2.03125 C 0.753906 -2.71875 0.5625 -3.535156 0.5625 -4.484375 C 0.5625 -5.410156 0.753906 -6.21875 1.140625 -6.90625 C 1.523438 -7.601562 2.070312 -8.132812 2.78125 -8.5 C 3.488281 -8.875 4.3125 -9.0625 5.25 -9.0625 C 5.894531 -9.0625 6.503906 -8.976562 7.078125 -8.8125 C 7.648438 -8.644531 8.117188 -8.414062 8.484375 -8.125 L 7.734375 -6.453125 C 7.328125 -6.722656 6.929688 -6.914062 6.546875 -7.03125 C 6.160156 -7.15625 5.753906 -7.21875 5.328125 -7.21875 C 4.523438 -7.21875 3.925781 -6.992188 3.53125 -6.546875 C 3.144531 -6.097656 2.953125 -5.410156 2.953125 -4.484375 C 2.953125 -3.535156 3.15625 -2.828125 3.5625 -2.359375 C 3.96875 -1.898438 4.597656 -1.671875 5.453125 -1.671875 C 5.835938 -1.671875 6.226562 -1.710938 6.625 -1.796875 L 6.625 -3.453125 L 5.0625 -3.453125 L 5.0625 -5.0625 Z M 8.75 -5.0625 "/></g></g></g><g fill="#ab1616" fill-opacity="1"><g transform="translate(158.942819, 22.974197)"><g/></g></g><g fill="#ab1616" fill-opacity="1"><g transform="translate(162.590092, 22.974197)"><g><path d="M 2.8125 0 L 2.8125 -7.046875 L 0.15625 -7.046875 L 0.15625 -8.953125 L 7.875 -8.953125 L 7.875 -7.046875 L 5.203125 -7.046875 L 5.203125 0 Z M 2.8125 0 "/></g></g></g><g fill="#ab1616" fill-opacity="1"><g transform="translate(170.614087, 22.974197)"><g><path d="M 0.8125 0 L 0.8125 -8.953125 L 3.171875 -8.953125 L 3.171875 0 Z M 0.8125 0 "/></g></g></g><g fill="#ab1616" fill-opacity="1"><g transform="translate(174.588358, 22.974197)"><g><path d="M 6.59375 -8.953125 L 8.8125 -8.953125 L 8.8125 0 L 7.0625 0 L 3 -5.078125 L 3 0 L 0.8125 0 L 0.8125 -8.953125 L 2.53125 -8.953125 L 6.59375 -3.90625 Z M 6.59375 -8.953125 "/></g></g></g><g fill="#ab1616" fill-opacity="1"><g transform="translate(184.213965, 22.974197)"><g/></g></g><g fill="#ab1616" fill-opacity="1"><g transform="translate(187.861238, 22.974197)"><g/></g></g></svg>