<svg xmlns="http://www.w3.org/2000/svg" xmlns:xlink="http://www.w3.org/1999/xlink" width="500" zoomAndPan="magnify" viewBox="0 0 375 374.999991" height="500" preserveAspectRatio="xMidYMid meet" version="1.0"><defs><clipPath id="id1"><path d="M 10.394531 10.394531 L 364 10.394531 L 364 363 L 10.394531 363 Z M 10.394531 10.394531 " clip-rule="nonzero"/></clipPath></defs><g clip-path="url(#id1)"><path fill="#000000" d="M 363.453125 185.980469 C 363.453125 283.441406 284.382812 362.511719 186.921875 362.511719 C 89.464844 362.511719 10.394531 283.441406 10.394531 185.980469 C 10.394531 88.523438 89.464844 9.453125 186.921875 9.453125 C 284.382812 9.453125 363.453125 88.523438 363.453125 185.980469 Z M 24.515625 185.980469 C 24.515625 275.644531 97.261719 348.390625 186.921875 348.390625 C 276.585938 348.390625 349.332031 275.644531 349.332031 185.980469 C 349.332031 96.320312 276.585938 23.574219 186.921875 23.574219 C 97.261719 23.574219 24.515625 96.320312 24.515625 185.980469 Z M 24.515625 185.980469 " fill-opacity="1" fill-rule="nonzero"/></g><path fill="#000000" d="M 186.921875 221.289062 C 144.042969 221.289062 109.25 186.496094 109.25 143.613281 C 109.25 100.734375 144.042969 65.941406 186.921875 65.941406 C 229.804688 65.941406 264.597656 100.734375 264.597656 143.613281 C 264.597656 186.496094 229.804688 221.289062 186.921875 221.289062 Z M 186.921875 207.164062 C 222.007812 207.164062 250.472656 178.699219 250.472656 143.613281 C 250.472656 108.53125 222.007812 80.066406 186.921875 80.066406 C 151.839844 80.066406 123.371094 108.53125 123.371094 143.613281 C 123.371094 178.699219 151.839844 207.164062 186.921875 207.164062 Z M 186.921875 207.164062 " fill-opacity="1" fill-rule="evenodd"/><path fill="#000000" d="M 137.496094 263.65625 L 236.351562 263.65625 C 269.082031 263.65625 292.546875 274.6875 307.257812 293.078125 C 309.683594 296.09375 314.171875 296.605469 317.1875 294.105469 C 320.277344 291.679688 320.71875 287.265625 318.289062 284.25 C 300.859375 262.476562 273.347656 249.53125 236.351562 249.53125 L 137.496094 249.53125 C 100.496094 249.53125 72.988281 262.476562 55.554688 284.25 C 53.128906 287.265625 53.570312 291.679688 56.660156 294.105469 C 59.675781 296.605469 64.164062 296.09375 66.589844 293.078125 C 81.300781 274.6875 104.765625 263.65625 137.496094 263.65625 Z M 137.496094 263.65625 " fill-opacity="1" fill-rule="nonzero"/></svg>