<svg xmlns="http://www.w3.org/2000/svg" xmlns:xlink="http://www.w3.org/1999/xlink" width="500" zoomAndPan="magnify" viewBox="0 0 375 374.999991" height="500" preserveAspectRatio="xMidYMid meet" version="1.0"><path fill="#000000" d="M 268.167969 245.546875 C 289.546875 220.445312 301.285156 188.960938 301.285156 155.632812 C 301.285156 118.472656 286.792969 83.542969 260.496094 57.265625 C 234.199219 30.992188 199.234375 16.519531 162.03125 16.519531 C 124.839844 16.519531 89.878906 30.992188 63.582031 57.265625 C 9.300781 111.507812 9.300781 199.761719 63.582031 253.996094 C 89.878906 280.269531 124.839844 294.742188 162.03125 294.742188 C 195.398438 294.742188 226.910156 283.019531 252.039062 261.660156 L 345.503906 355.046875 C 347.734375 357.273438 350.652344 358.386719 353.570312 358.386719 C 356.488281 358.386719 359.40625 357.273438 361.632812 355.046875 C 366.089844 350.597656 366.089844 343.386719 361.632812 338.933594 Z M 79.707031 237.882812 C 34.320312 192.535156 34.320312 118.734375 79.707031 73.382812 C 125.097656 28.042969 198.957031 28.019531 244.367188 73.382812 C 266.355469 95.355469 278.472656 124.5625 278.472656 155.632812 C 278.472656 186.703125 266.355469 215.914062 244.367188 237.882812 C 198.957031 283.246094 125.097656 283.226562 79.707031 237.882812 Z M 79.707031 237.882812 " fill-opacity="1" fill-rule="nonzero"/></svg>