<svg xmlns="http://www.w3.org/2000/svg" xmlns:xlink="http://www.w3.org/1999/xlink" width="500" zoomAndPan="magnify" viewBox="0 0 375 374.999991" height="500" preserveAspectRatio="xMidYMid meet" version="1.0"><defs><clipPath id="id1"><path d="M 14.835938 14.835938 L 359.835938 14.835938 L 359.835938 359.835938 L 14.835938 359.835938 Z M 14.835938 14.835938 " clip-rule="nonzero"/></clipPath></defs><g clip-path="url(#id1)"><path fill="#e52d27" d="M 359.835938 307.402344 C 359.835938 336.316406 336.316406 359.835938 307.402344 359.835938 L 67.265625 359.835938 C 38.351562 359.835938 14.835938 336.316406 14.835938 307.402344 L 14.835938 67.265625 C 14.835938 38.351562 38.351562 14.835938 67.265625 14.835938 L 307.402344 14.835938 C 336.316406 14.835938 359.835938 38.351562 359.835938 67.265625 Z M 359.835938 307.402344 " fill-opacity="1" fill-rule="nonzero"/></g><path fill="#ffffff" d="M 309.621094 190.0625 C 309.621094 209.140625 309.621094 229.355469 305.363281 247.832031 C 302.363281 260.851562 291.746094 270.390625 278.910156 271.828125 C 248.613281 275.1875 217.898438 275.25 187.363281 275.1875 C 156.769531 275.1875 126.175781 275.1875 95.820312 271.828125 C 83.042969 270.390625 72.363281 260.851562 69.363281 247.832031 C 65.105469 229.355469 65.105469 209.140625 65.105469 190.0625 C 65.105469 170.988281 65.164062 150.769531 69.363281 132.292969 C 72.363281 119.277344 82.980469 109.738281 95.820312 108.296875 C 126.175781 104.878906 156.828125 104.878906 187.363281 104.878906 C 217.898438 104.878906 248.554688 104.878906 278.910156 108.296875 C 291.6875 109.738281 302.363281 119.277344 305.363281 132.292969 C 309.621094 150.769531 309.621094 170.988281 309.621094 190.0625 Z M 309.621094 190.0625 " fill-opacity="1" fill-rule="nonzero"/><path fill="#e52d27" d="M 161.628906 144.589844 L 161.628906 235.957031 L 232.597656 190.242188 Z M 161.628906 144.589844 " fill-opacity="1" fill-rule="nonzero"/></svg>